<svg  viewBox="0 0 32 33"  xmlns="http://www.w3.org/2000/svg">
<path fill-rule="evenodd" clip-rule="evenodd" d="M13.4398 2.57501C13.5827 2.5216 13.7862 2.46479 14.0519 2.41364C14.6926 2.30013 15.3422 2.24535 15.9929 2.24997V2.25H16C16.7216 2.25 17.4057 2.30951 17.9412 2.41232L17.9417 2.41242C18.2104 2.46385 18.4151 2.52103 18.5584 2.57479C18.6545 2.61086 18.6999 2.63684 18.7125 2.64404C18.714 2.64489 18.715 2.64548 18.7156 2.64579C19.1205 3.00692 19.7418 2.97953 20.1131 2.58043C20.4893 2.1761 20.4665 1.54334 20.0622 1.16714C19.823 0.944585 19.5235 0.800768 19.2608 0.702211C18.9821 0.597645 18.6619 0.513988 18.3183 0.448183L14.0519 2.41364L18.3178 0.448084C17.6329 0.316648 16.8205 0.250192 16.0035 0.250001C15.2297 0.244714 14.4571 0.310217 13.6952 0.445694L13.6952 0.445609L13.6822 0.448084C13.3386 0.513871 13.0182 0.597455 12.7397 0.701554C12.4783 0.799247 12.1775 0.942497 11.938 1.16516C11.5336 1.54124 11.5106 2.17399 11.8867 2.57844C12.2574 2.97722 12.8777 3.00519 13.2828 2.64545C13.2834 2.64512 13.2844 2.64453 13.2859 2.64369C13.2988 2.63643 13.3442 2.61073 13.4398 2.57501ZM0.25 6.5H31.75L31.7517 11.75C30.8235 11.75 29.9333 12.1187 29.2769 12.7751C28.6205 13.4315 28.2517 14.3217 28.2517 15.25V22.25V22.25C28.2517 27.199 28.2517 29.6753 26.7118 31.2118C25.1753 32.75 22.7008 32.75 17.75 32.75H14.25C9.301 32.75 6.82475 32.75 5.28825 31.2118C3.75 29.6753 3.75 27.199 3.75 22.25V15.25C3.75 14.3217 3.38125 13.4315 2.72487 12.7751C2.0685 12.1187 1.17826 11.75 0.25 11.75V6.5ZM12.8624 14.0126C13.1906 14.3408 13.375 14.7859 13.375 15.25V24C13.375 24.4641 13.1906 24.9093 12.8624 25.2374C12.5342 25.5656 12.0891 25.75 11.625 25.75C11.1609 25.75 10.7158 25.5656 10.3876 25.2374C10.0594 24.9093 9.875 24.4641 9.875 24V15.25C9.875 14.7859 10.0594 14.3408 10.3876 14.0126C10.7158 13.6844 11.1609 13.5 11.625 13.5C12.0891 13.5 12.5342 13.6844 12.8624 14.0126ZM21.6124 14.0126C21.9406 14.3408 22.125 14.7859 22.125 15.25V24C22.125 24.4641 21.9406 24.9093 21.6124 25.2374C21.2842 25.5656 20.8391 25.75 20.375 25.75C19.9109 25.75 19.4658 25.5656 19.1376 25.2374C18.8094 24.9093 18.625 24.4641 18.625 24V15.25C18.625 14.7859 18.8094 14.3408 19.1376 14.0126C19.4658 13.6844 19.9109 13.5 20.375 13.5C20.8391 13.5 21.2842 13.6844 21.6124 14.0126Z" />
</svg>
